<svg width="597" height="588" viewBox="0 0 597 588" fill="none" xmlns="http://www.w3.org/2000/svg">
    <g filter="url(#filter0_d)">
        <rect x="195" y="149" width="366" height="235" rx="25" fill="#f8f8f8" fill-opacity="0.98" />
    </g>
    <path d="M219 149H286V254L251 225L219 254V149Z" fill="#FB3B7B" fill-opacity="0.65" />
    <circle cx="251" cy="329" r="25" fill="#FF5A5F" fill-opacity="0.47" />
    <rect x="324" y="176" width="195" height="17" rx="2" fill="#B8B8B8" fill-opacity="0.55" />
    <rect x="391" y="206" width="62" height="7" rx="2" fill="#B8B8B8" fill-opacity="0.55" />
    <rect x="362" y="249" width="120" height="7" rx="2" fill="#B8B8B8" fill-opacity="0.55" />
    <rect x="362" y="265" width="120" height="7" rx="2" fill="#B8B8B8" fill-opacity="0.55" />
    <rect x="362" y="281" width="120" height="7" rx="2" fill="#B8B8B8" fill-opacity="0.55" />
    <rect x="479" y="337" width="52" height="7" rx="2" fill="#B8B8B8" fill-opacity="0.55" />
    <rect x="324" y="337" width="52" height="7" rx="2" fill="#B8B8B8" fill-opacity="0.55" />
    <rect x="339" y="224" width="166" height="14" rx="2" fill="#B8B8B8" fill-opacity="0.55" />
    <defs>
        <filter id="filter0_d" x="0" y="-47" width="766" height="635" filterUnits="userSpaceOnUse" color-interpolation-filters="sRGB">
            <feFlood flood-opacity="0" result="BackgroundImageFix" />
            <feColorMatrix in="SourceAlpha" type="matrix" values="0 0 0 0 0 0 0 0 0 0 0 0 0 0 0 0 0 0 127 0" />
            <feMorphology radius="100" operator="dilate" in="SourceAlpha" result="effect1_dropShadow" />
            <feOffset dx="5" dy="4" />
            <feGaussianBlur stdDeviation="50" />
            <feColorMatrix type="matrix" values="0 0 0 0 0 0 0 0 0 0 0 0 0 0 0 0 0 0 0.06 0" />
            <feBlend mode="normal" in2="BackgroundImageFix" result="effect1_dropShadow" />
            <feBlend mode="normal" in="SourceGraphic" in2="effect1_dropShadow" result="shape" />
        </filter>
    </defs>
</svg>
