<svg width="780" height="560" viewBox="0 0 780 560" fill="none" xmlns="http://www.w3.org/2000/svg">
    <path d="M0 0H681L621.814 312.843C611.075 369.603 566.577 413.939 509.779 424.471L0 519V0Z" fill="url(#paint0_linear)" />
    <circle cx="89.1146" cy="105.627" r="124.073" transform="rotate(0.402755 89.1146 105.627)" stroke="url(#paint1_linear)" stroke-width="90" />
    <circle cx="89.3418" cy="105.514" r="217.133" transform="rotate(0.402755 89.3418 105.514)" stroke="url(#paint2_linear)" stroke-width="40" />
    <circle cx="89.8388" cy="105.839" r="276.045" transform="rotate(0.402755 89.8388 105.839)" stroke="url(#paint3_linear)" stroke-width="40" />
    <circle cx="89.28" cy="105.516" r="150.602" transform="rotate(0.402755 89.28 105.516)" stroke="url(#paint4_linear)" stroke-width="40" />
    <circle cx="625" cy="21" r="154" stroke="url(#paint5_linear)" stroke-opacity="0.61" stroke-width="2" stroke-dasharray="2 12" />
    <circle cx="501.5" cy="398.5" r="84.5" stroke="white" stroke-opacity="0.38" stroke-width="2" stroke-dasharray="2 12" />
    <circle cx="502" cy="398" r="130" stroke="white" stroke-opacity="0.38" stroke-width="2" stroke-dasharray="2 12" />
    <circle cx="501.5" cy="398.5" r="160.5" stroke="white" stroke-opacity="0.38" stroke-width="2" stroke-dasharray="2 12" />
    <defs>
        <linearGradient id="paint0_linear" x1="60" y1="260" x2="574" y2="186" gradientUnits="userSpaceOnUse">
            <stop stop-color="#FF595E" />
            <stop offset="1" stop-color="#FE3A7C" />
        </linearGradient>
        <linearGradient id="paint1_linear" x1="89.1147" y1="26.5539" x2="90.003" y2="162.995" gradientUnits="userSpaceOnUse">
            <stop stop-color="white" stop-opacity="0.15" />
            <stop offset="1" stop-color="white" stop-opacity="0" />
        </linearGradient>
        <linearGradient id="paint2_linear" x1="89.3418" y1="-91.6192" x2="106.867" y2="262.521" gradientUnits="userSpaceOnUse">
            <stop stop-color="white" stop-opacity="0.06" />
            <stop offset="1" stop-color="white" stop-opacity="0" />
        </linearGradient>
        <linearGradient id="paint3_linear" x1="89.8388" y1="-150.206" x2="112.602" y2="309.767" gradientUnits="userSpaceOnUse">
            <stop stop-color="white" stop-opacity="0.06" />
            <stop offset="1" stop-color="white" stop-opacity="0" />
        </linearGradient>
        <linearGradient id="paint4_linear" x1="220.684" y1="60.0752" x2="112.165" y2="128.84" gradientUnits="userSpaceOnUse">
            <stop stop-color="white" stop-opacity="0.05" />
            <stop offset="1" stop-color="white" stop-opacity="0" />
        </linearGradient>
        <linearGradient id="paint5_linear" x1="498.562" y1="77.0787" x2="639.978" y2="-32.2921" gradientUnits="userSpaceOnUse">
            <stop stop-color="#E0E0E0" />
            <stop offset="1" stop-color="white" stop-opacity="0" />
        </linearGradient>
    </defs>
</svg>
